<svg width="602" height="197" viewBox="0 0 602 197" fill="none" xmlns="http://www.w3.org/2000/svg">
<path d="M51.4021 1L1 124.714V148.476H106.17V175.255H1V196H153V124.714H51.4021L106.17 27.7795V48.5242H153V1H51.4021Z" fill="#3EE7F2" stroke="black"/>
<path d="M99.6932 120V64.7273H106.386V89.3409H135.858V64.7273H142.551V120H135.858V95.2784H106.386V120H99.6932ZM171.928 120.864C168.186 120.864 164.902 119.973 162.077 118.192C159.271 116.411 157.076 113.919 155.492 110.716C153.927 107.513 153.144 103.771 153.144 99.4886C153.144 95.1705 153.927 91.401 155.492 88.1804C157.076 84.9598 159.271 82.4588 162.077 80.6776C164.902 78.8963 168.186 78.0057 171.928 78.0057C175.671 78.0057 178.945 78.8963 181.752 80.6776C184.577 82.4588 186.772 84.9598 188.337 88.1804C189.921 91.401 190.712 95.1705 190.712 99.4886C190.712 103.771 189.921 107.513 188.337 110.716C186.772 113.919 184.577 116.411 181.752 118.192C178.945 119.973 175.671 120.864 171.928 120.864ZM171.928 115.142C174.771 115.142 177.11 114.413 178.945 112.956C180.781 111.499 182.139 109.582 183.021 107.207C183.902 104.832 184.343 102.259 184.343 99.4886C184.343 96.7178 183.902 94.1359 183.021 91.7429C182.139 89.3499 180.781 87.4157 178.945 85.9403C177.11 84.465 174.771 83.7273 171.928 83.7273C169.085 83.7273 166.746 84.465 164.911 85.9403C163.076 87.4157 161.718 89.3499 160.836 91.7429C159.954 94.1359 159.513 96.7178 159.513 99.4886C159.513 102.259 159.954 104.832 160.836 107.207C161.718 109.582 163.076 111.499 164.911 112.956C166.746 114.413 169.085 115.142 171.928 115.142ZM201.299 120V64.7273H219.975C224.311 64.7273 227.855 65.5099 230.608 67.0753C233.379 68.6226 235.43 70.7188 236.762 73.3636C238.093 76.0085 238.759 78.9593 238.759 82.2159C238.759 85.4725 238.093 88.4323 236.762 91.0952C235.448 93.758 233.415 95.8812 230.662 97.4645C227.909 99.0298 224.383 99.8125 220.083 99.8125H206.696V93.875H219.867C222.836 93.875 225.22 93.3622 227.019 92.3366C228.818 91.3111 230.123 89.9257 230.932 88.1804C231.76 86.4171 232.174 84.429 232.174 82.2159C232.174 80.0028 231.76 78.0237 230.932 76.2784C230.123 74.5331 228.809 73.1657 226.992 72.1761C225.175 71.1686 222.764 70.6648 219.759 70.6648H207.992V120H201.299ZM249.541 120V64.7273H268.217C272.553 64.7273 276.098 65.5099 278.85 67.0753C281.621 68.6226 283.672 70.7188 285.004 73.3636C286.335 76.0085 287.001 78.9593 287.001 82.2159C287.001 85.4725 286.335 88.4323 285.004 91.0952C283.69 93.758 281.657 95.8812 278.904 97.4645C276.152 99.0298 272.625 99.8125 268.325 99.8125H254.939V93.875H268.109C271.078 93.875 273.462 93.3622 275.261 92.3366C277.06 91.3111 278.365 89.9257 279.174 88.1804C280.002 86.4171 280.416 84.429 280.416 82.2159C280.416 80.0028 280.002 78.0237 279.174 76.2784C278.365 74.5331 277.051 73.1657 275.234 72.1761C273.417 71.1686 271.006 70.6648 268.001 70.6648H256.234V120H249.541ZM304.476 64.7273V120H297.783V64.7273H304.476ZM361.726 64.7273V120H355.249L325.129 76.6023H324.589V120H317.896V64.7273H324.374L354.601 108.233H355.141V64.7273H361.726ZM412.903 82C412.309 80.1828 411.527 78.5544 410.555 77.1151C409.601 75.6577 408.459 74.4162 407.127 73.3906C405.814 72.3651 404.321 71.5824 402.647 71.0426C400.974 70.5028 399.139 70.233 397.142 70.233C393.867 70.233 390.889 71.0786 388.208 72.7699C385.528 74.4612 383.395 76.9531 381.812 80.2457C380.229 83.5384 379.437 87.5777 379.437 92.3636C379.437 97.1496 380.238 101.189 381.839 104.482C383.44 107.774 385.609 110.266 388.343 111.957C391.078 113.649 394.155 114.494 397.574 114.494C400.74 114.494 403.529 113.82 405.94 112.47C408.369 111.103 410.258 109.178 411.608 106.695C412.975 104.194 413.659 101.252 413.659 97.8693L415.71 98.3011H399.085V92.3636H420.136V98.3011C420.136 102.853 419.164 106.812 417.221 110.176C415.296 113.541 412.633 116.15 409.233 118.003C405.85 119.838 401.964 120.756 397.574 120.756C392.68 120.756 388.379 119.604 384.673 117.301C380.984 114.998 378.106 111.723 376.037 107.477C373.985 103.231 372.96 98.1932 372.96 92.3636C372.96 87.9915 373.545 84.0601 374.714 80.5696C375.902 77.0611 377.575 74.0743 379.734 71.6094C381.893 69.1444 384.448 67.2552 387.399 65.9418C390.35 64.6283 393.597 63.9716 397.142 63.9716C400.056 63.9716 402.773 64.4124 405.292 65.294C407.829 66.1577 410.087 67.3901 412.066 68.9915C414.064 70.5748 415.728 72.473 417.059 74.6861C418.391 76.8812 419.308 79.3191 419.812 82H412.903ZM455.241 120H448.224L468.52 64.7273H475.429L495.724 120H488.707L472.19 73.4716H471.759L455.241 120ZM457.832 98.4091H486.116V104.347H457.832V98.4091ZM504.334 120V64.7273H523.01C527.346 64.7273 530.891 65.5099 533.643 67.0753C536.414 68.6226 538.465 70.7188 539.797 73.3636C541.128 76.0085 541.794 78.9593 541.794 82.2159C541.794 85.4725 541.128 88.4323 539.797 91.0952C538.483 93.758 536.45 95.8812 533.697 97.4645C530.945 99.0298 527.418 99.8125 523.118 99.8125H509.732V93.875H522.902C525.871 93.875 528.255 93.3622 530.054 92.3366C531.853 91.3111 533.158 89.9257 533.967 88.1804C534.795 86.4171 535.209 84.429 535.209 82.2159C535.209 80.0028 534.795 78.0237 533.967 76.2784C533.158 74.5331 531.844 73.1657 530.027 72.1761C528.21 71.1686 525.799 70.6648 522.794 70.6648H511.027V120H504.334ZM552.576 120V64.7273H571.252C575.588 64.7273 579.133 65.5099 581.886 67.0753C584.656 68.6226 586.708 70.7188 588.039 73.3636C589.371 76.0085 590.036 78.9593 590.036 82.2159C590.036 85.4725 589.371 88.4323 588.039 91.0952C586.726 93.758 584.692 95.8812 581.94 97.4645C579.187 99.0298 575.66 99.8125 571.36 99.8125H557.974V93.875H571.144C574.113 93.875 576.497 93.3622 578.296 92.3366C580.095 91.3111 581.4 89.9257 582.21 88.1804C583.037 86.4171 583.451 84.429 583.451 82.2159C583.451 80.0028 583.037 78.0237 582.21 76.2784C581.4 74.5331 580.086 73.1657 578.269 72.1761C576.452 71.1686 574.041 70.6648 571.036 70.6648H559.269V120H552.576Z" fill="#478D8D"/>
</svg>
